<svg height="512" viewBox="0 0 512 512" width="512" xmlns="http://www.w3.org/2000/svg"><g id="Fill_out_line" data-name="Fill out line"><rect fill="#eedc9a" height="256" rx="16" width="368" x="24" y="88"/><path d="m280 344v-256h96a16 16 0 0 1 16 16v224a16 16 0 0 1 -16 16z" fill="#eebe33"/><path d="m192 160-16-16-16 16-16-16-16 16v-72h64z" fill="#ad7d4d"/><path d="m168 240h80v72h-80z" fill="#8acce7"/><path d="m464 304-12.67993 12.68994-35.32007 35.31006h-9.35986a54.64465 54.64465 0 0 1 -54.65014-54.74l.01-9.26-16-16a33.93247 33.93247 0 0 1 -1.99-45.82 31.12021 31.12021 0 0 1 -14.01-34.18l112 16z" fill="#f4ceaf"/><path d="m496 336-32-32-52.68629 52.68629a16 16 0 0 0 0 22.62742l84.68629 84.68629z" fill="#396795"/><path d="m475.77 272.90991a16.46527 16.46527 0 0 1 -19.05 12.18009l-15.27-2.91-24.80981-4.73-8.69019-1.66-24.8999-4.74-79.0501-15.05-24-24 32-8 29.6499 5.65 27.9502 5.32 55.04 10.49 24.8099 4.72 13.42993 2.56a16.46337 16.46337 0 0 1 12.89007 20.16991z" fill="#ad7d4d"/><path d="m449.45 250.18-8 32-24.81-4.73 8-31.99z" fill="#eedc9a"/><path d="m475.77 272.90991a16.46527 16.46527 0 0 1 -19.05 12.18009l-15.27-2.91 8-31.99994 13.42993 2.56a16.46337 16.46337 0 0 1 12.89007 20.16985z" fill="#8acce7"/><path d="m440 328-24 24h-9.35986a54.64465 54.64465 0 0 1 -54.65014-54.74l.01-9.26-16-16a33.944 33.944 0 0 1 0-48l5.6499 5.65 50.3501 50.35v16a8 8 0 0 0 16 0z" fill="#f4ceaf"/><path d="m304.96 255.46-.96.54-24-24 32-8a21.63224 21.63224 0 0 1 -7.04 31.46z" fill="#d29979"/><path d="m168 232a8.00008 8.00008 0 0 0 -8 8v72a8.00008 8.00008 0 0 0 8 8h80a8.00008 8.00008 0 0 0 8-8v-72a8.00008 8.00008 0 0 0 -8-8zm72 72h-64v-56h64z"/><path d="m184 256h16v16h-16z"/><path d="m216 256h16v16h-16z"/><path d="m184 280h32v16h-32z"/><circle cx="440" cy="368" r="8"/><path d="m470.99268 299.67871-2.61817-7.85425a24.46374 24.46374 0 0 0 -3.99756-46.94311l-12.43995-2.36935-12.34717-37.04175a8.00148 8.00148 0 0 0 -6.458-5.38964l-112-16a7.9927 7.9927 0 0 0 -8.88965 5.96582 38.85941 38.85941 0 0 0 2.66015 26.36291l-1.40429-.2677a8.00219 8.00219 0 0 0 -3.43848.09717l-22.05956 5.51485v-125.75366h88a8.00917 8.00917 0 0 1 8 8v72h16v-72a24.02718 24.02718 0 0 0 -24-24h-336a24.02718 24.02718 0 0 0 -24 24v224a24.02718 24.02718 0 0 0 24 24h272v-16h-272a8.00917 8.00917 0 0 1 -8-8v-224a8.00917 8.00917 0 0 1 8-8h80v64a8.0001 8.0001 0 0 0 13.65723 5.65674l10.34277-10.34326 10.34277 10.34326a8.00122 8.00122 0 0 0 11.31446 0l10.34277-10.34326 10.34277 10.34326a8.0001 8.0001 0 0 0 13.65723-5.65674v-64h72v136h.00146a7.99827 7.99827 0 0 0 2.34131 5.65674l24 24a7.99966 7.99966 0 0 0 4.16016 2.20166l20.481 3.90234a42.09341 42.09341 0 0 0 7.35888 9.89551l13.65235 13.65186-.00977 5.94091a62.65329 62.65329 0 0 0 56.12988 62.41065 24.04 24.04 0 0 0 5.541 25.31054l44.68652 44.68653 11.31446-11.31348-44.68655-44.68652a8.00063 8.00063 0 0 1 0-11.31348l47.0293-47.02978 18.34277 18.34326 11.31446-11.31348zm-286.99268-158.99219-2.34277-2.34326a8.00122 8.00122 0 0 0 -11.31446 0l-10.34277 10.34326-10.34277-10.34326a8.00122 8.00122 0 0 0 -11.31446 0l-2.34277 2.34326v-44.68652h48zm202.97656 122.97559-21.29-21.29 15.06226 2.86884 16.25317 3.09747.00025-.00171 17.81933 3.394-4.113 16.4516zm43.58692-8.933 9.07617 1.7287-4.11279 16.45154-9.07618-1.72864zm36.36914 9.62885a8.46752 8.46752 0 0 1 -7.123 13.022 8.28641 8.28641 0 0 1 -1.59277-.14892l-6.94776-1.32325 4.1128-16.45166 6.001 1.14307a8.385 8.385 0 0 1 5.54973 3.75871zm-40.959-49.1377 7.95386 23.86146-55.63306-10.59632-32.40088-6.1748c-.11059-.021-.22949-.05048-.34228-.07373l-3.894-3.894a7.98809 7.98809 0 0 0 -7.50611-2.11822 23.31654 23.31654 0 0 1 -7.04174-15.12787zm-118.05762 33.38179-12.26856-12.26758 16.585-4.14648 8.293 1.58075a41.96467 41.96467 0 0 0 -2.4668 14.23077c0 .85523.03418 1.70484.08448 2.55139zm104.7705 95.39746h-6.04785a46.65212 46.65212 0 0 1 -46.65332-46.72558l.01467-9.26172a8.00352 8.00352 0 0 0 -2.34277-5.66944l-16-16a25.98179 25.98179 0 0 1 -4.77246-30.145l47.11523 47.11523v28.687h16v-29.56934l51.65674 9.83875 3.18994 9.57z"/></g></svg>