<svg id="Layer_1" enable-background="new 0 0 510.699 510.699" height="512" viewBox="0 0 510.699 510.699" width="512" xmlns="http://www.w3.org/2000/svg"><g><g><ellipse cx="108.712" cy="76.354" fill="#ffb69e" rx="37.82" ry="37.82" transform="matrix(.383 -.924 .924 .383 -3.432 147.572)"/><g><g id="XMLID_402_"><path d="m134.374 478.639-20.197-179.332c-1.382-12.059 7.419-18.654 19.478-20.036 12.054-1.382 22.955 7.274 24.337 19.333l20.053 175.031c1.382 12.059-7.274 22.955-19.333 24.337-12.028 1.38-22.953-7.244-24.338-19.333z" fill="#1b1d1e"/></g><g id="XMLID_401_"><path d="m60.352 497.972c-12.059-1.382-20.715-12.277-19.333-24.337l20.053-175.031c1.382-12.059 12.277-20.711 24.337-19.333 12.059 1.382 20.86 7.976 19.478 20.036l-20.198 179.332c-1.383 12.076-12.294 20.713-24.337 19.333z" fill="#292c2d"/></g></g><path d="m113.558 296.083v-158.92l-29.994-12.032h-12.063c-23.051 0-43.762 14.579-51.537 36.279l-18.933 52.844c-2.961 8.265.642 17.448 8.435 21.492l51.737 26.851v36.71h48.487zm-74.321-84.423 13.763-38.412c1.537-4.289 4.486-7.796 8.203-10.088v59.901z" fill="#00558c"/><path d="m219.257 214.254-18.934-52.843c-7.775-21.7-28.486-36.28-51.537-36.28h-13.286l-25.81 7.018v167.157h48.171v-36.075l52.961-27.486c7.792-4.043 11.396-13.226 8.435-21.491zm-61.396 9.441v-61.229c4.292 2.242 7.725 6.033 9.426 10.782l13.764 38.412z" fill="#004470"/><path d="m83.564 125.132s5.805 34.677 18.678 44.871h14.58c12.873-10.193 18.678-44.871 18.678-44.871h-18.892l-7.076 3.04-7.076-3.04z" fill="#fff"/><g fill="#1b1d1e"><path d="m116.608 125.132h-14.152c-1.779 0-3.122 1.614-2.799 3.363l2.33 12.622c.249 1.35 1.426 2.33 2.799 2.33h9.491c1.373 0 2.55-.98 2.799-2.33l2.33-12.622c.324-1.75-1.019-3.363-2.798-3.363z"/><path d="m116.229 149.291c-.215-1.094-1.175-1.883-2.29-1.883h-8.816c-1.115 0-2.074.789-2.29 1.883l-2.299 11.685c-.061.308-.058.624.006.931l1.703 8.09c2.218 1.755 4.643 2.79 7.287 2.79 2.643 0 5.069-1.035 7.287-2.79l1.703-8.09c.065-.307.067-.623.006-.931z"/></g></g><g><path d="m484.515 28.589h-235.75c-4.928 0-8.923 3.995-8.923 8.923v435.674c0 4.928 3.995 8.923 8.923 8.923h235.749c4.928 0 8.923-3.995 8.923-8.923v-435.674c.001-4.928-3.994-8.923-8.922-8.923z" fill="#965028"/><path d="m483.037 31.433c4.866 0 8.811 3.945 8.811 8.811v430.211c0 4.866-3.945 8.811-8.811 8.811h-232.793c-4.866 0-8.811-3.945-8.811-8.811v-430.211c0-4.866 3.945-8.811 8.811-8.811zm0-18.851h-232.793c-15.253 0-27.662 12.409-27.662 27.662v430.211c0 15.253 12.409 27.662 27.662 27.662h232.793c15.253 0 27.662-12.409 27.662-27.662v-430.211c0-15.253-12.409-27.662-27.662-27.662z" fill="#b48255"/><g fill="#dcbe82"><path d="m314.562 103.537h6.502c1.301 0 2.037 1.257 2.037 2.645 0 1.17-.607 2.558-2.037 2.558h-6.502v7.369h11.617c1.301 0 2.037 1.387 2.037 2.991 0 1.387-.607 2.905-2.037 2.905h-15.433c-1.474 0-2.947-.694-2.947-2.081v-27.528c0-1.387 1.474-2.081 2.947-2.081h15.433c1.43 0 2.037 1.517 2.037 2.905 0 1.603-.736 2.991-2.037 2.991h-11.617z"/><path d="m346.161 120.183-8.236-14.999v14.739c0 1.387-1.691 2.081-3.382 2.081-1.69 0-3.381-.694-3.381-2.081v-27.527c0-1.43 1.691-2.081 3.381-2.081 2.428 0 3.339.217 4.985 3.381l7.022 13.395v-14.738c0-1.43 1.691-2.037 3.382-2.037 1.69 0 3.381.607 3.381 2.037v27.569c0 1.387-1.691 2.081-3.381 2.081-1.561 0-2.948-.303-3.771-1.82z"/><path d="m376.763 90.316c1.43 0 2.037 1.561 2.037 2.991 0 1.647-.737 3.078-2.037 3.078h-5.982v23.538c0 1.387-1.691 2.081-3.382 2.081-1.69 0-3.381-.694-3.381-2.081v-23.539h-5.982c-1.301 0-2.037-1.43-2.037-3.078 0-1.43.607-2.991 2.037-2.991h18.727z"/><path d="m388.249 103.537h6.502c1.301 0 2.037 1.257 2.037 2.645 0 1.17-.607 2.558-2.037 2.558h-6.502v7.369h11.617c1.301 0 2.037 1.387 2.037 2.991 0 1.387-.607 2.905-2.037 2.905h-15.433c-1.474 0-2.947-.694-2.947-2.081v-27.528c0-1.387 1.474-2.081 2.947-2.081h15.433c1.43 0 2.037 1.517 2.037 2.905 0 1.603-.736 2.991-2.037 2.991h-11.617z"/><path d="m404.848 92.353c0-1.084.824-2.037 2.081-2.037h8.973c5.939 0 10.664 2.211 10.664 9.276 0 4.855-2.211 7.629-5.245 8.8l5.288 9.58c.174.26.217.563.217.78 0 1.69-2.254 3.511-4.249 3.511-.866 0-1.69-.347-2.167-1.257l-5.939-11.531h-2.861v10.447c0 1.387-1.691 2.081-3.382 2.081-1.69 0-3.381-.694-3.381-2.081v-27.569zm6.763 3.858v8.063h4.291c2.427 0 3.901-.997 3.901-4.031s-1.474-4.032-3.901-4.032z"/></g></g><g><path d="m469.508 265.684h-37.659c-3.322 0-6.016-2.694-6.016-6.016s2.694-6.016 6.016-6.016h37.659c3.322 0 6.016 2.694 6.016 6.016s-2.694 6.016-6.016 6.016z" fill="#b48255"/></g></g></svg>